<svg width="2357" height="1397" viewBox="0 0 2357 1397" fill="none" xmlns="http://www.w3.org/2000/svg">
<path d="M2278.16 700.537C2288.73 661.083 2277.51 617.668 2247.92 572.861C2218.32 528.055 2170.41 481.963 2107.84 437.248C1982.72 347.824 1799.13 264.038 1586.75 207.13C1374.36 150.222 1173.48 130.99 1020.4 145.869C943.861 153.309 879.326 169.273 831.292 193.278C783.257 217.284 751.832 249.272 741.26 288.725C730.689 328.178 741.91 371.594 771.507 416.401C801.103 461.206 849.01 507.299 911.577 552.013C1036.71 641.438 1220.29 725.223 1432.68 782.131C1645.06 839.039 1845.94 858.272 1999.02 843.392C2075.56 835.952 2140.1 819.989 2188.13 795.984C2236.16 771.978 2267.59 739.99 2278.16 700.537Z" stroke="#575757" stroke-width="2"/>
<path d="M271.129 1214.58C419.967 1314.24 637.836 1250.37 757.671 1071.4C877.506 892.43 853.57 666.659 704.731 567C555.892 467.341 338.024 531.204 218.188 710.175C98.3534 889.147 122.29 1114.92 271.129 1214.58Z" stroke="#575757" stroke-width="2"/>
</svg>
