<svg width="1548" height="710" viewBox="0 0 1548 710" fill="none" xmlns="http://www.w3.org/2000/svg">
<path d="M1542.16 560.537C1552.73 521.083 1541.51 477.668 1511.92 432.861C1482.32 388.055 1434.41 341.963 1371.84 297.248C1246.72 207.824 1063.13 124.038 850.747 67.1305C638.363 10.2225 437.481 -9.01008 284.403 5.86931C207.861 13.3094 143.326 29.2731 95.2924 53.2781C47.2574 77.2838 15.8317 109.272 5.26025 148.725C-5.31125 188.178 5.91018 231.594 35.5069 276.401C65.1027 321.206 113.01 367.299 175.577 412.013C300.707 501.438 484.292 585.223 696.676 642.131C909.059 699.039 1109.94 718.272 1263.02 703.392C1339.56 695.952 1404.1 679.989 1452.13 655.984C1500.16 631.978 1531.59 599.99 1542.16 560.537Z" stroke="#575757" stroke-width="2"/>
</svg>
